<?xml version="1.0" encoding="UTF-8" standalone="no"?>
<!DOCTYPE svg PUBLIC "-//W3C//DTD SVG 1.1//EN" "http://www.w3.org/Graphics/SVG/1.1/DTD/svg11.dtd">
<svg width="100%" height="100%" viewBox="0 0 500 500" version="1.1" xmlns="http://www.w3.org/2000/svg" xmlns:xlink="http://www.w3.org/1999/xlink" xml:space="preserve" xmlns:serif="http://www.serif.com/" style="fill-rule:evenodd;clip-rule:evenodd;stroke-linejoin:round;stroke-miterlimit:2;" fill="#e5e7eb">
    <g transform="matrix(0.604474,0,0,0.604474,-499.642,-749.525)">
        <g transform="matrix(68.248,0,0,68.248,1456.5,1574.41)">
            <path d="M0,2.32C-0.38,2.63 -0.81,2.88 -1.27,3.06C-1.86,3.31 -2.5,3.44 -3.17,3.44C-3.84,3.44 -4.48,3.31 -5.07,3.06C-5.53,2.88 -5.96,2.63 -6.34,2.32C-6.75,1.99 -7.11,1.6 -7.4,1.16C-7.11,0.719 -6.75,0.33 -6.34,0C-5.96,-0.31 -5.53,-0.56 -5.07,-0.741C-4.48,-0.991 -3.84,-1.12 -3.17,-1.12C-2.5,-1.12 -1.86,-0.991 -1.27,-0.741C-0.81,-0.56 -0.38,-0.31 0,0C0.41,0.33 0.77,0.719 1.06,1.16C0.77,1.6 0.41,1.99 0,2.32M2.89,-1.62L1.89,-1.62C1.89,-0.991 1.78,-0.39 1.56,0.16C1.01,-0.54 0.3,-1.11 -0.51,-1.5C-0.98,-1.74 -1.48,-1.91 -2.01,-2.01C-2.39,-2.08 -2.77,-2.12 -3.17,-2.12C-3.57,-2.12 -3.95,-2.08 -4.33,-2.01C-4.86,-1.91 -5.36,-1.74 -5.83,-1.5C-6.64,-1.11 -7.35,-0.54 -7.9,0.16C-8.12,-0.39 -8.23,-0.991 -8.23,-1.62L-9.23,-1.62C-9.23,-0.62 -8.99,0.33 -8.55,1.16C-8.99,1.99 -9.23,2.929 -9.23,3.94L-8.23,3.94C-8.23,3.31 -8.11,2.71 -7.9,2.15C-7.35,2.86 -6.63,3.429 -5.82,3.82C-5.35,4.06 -4.85,4.23 -4.33,4.33C-3.95,4.4 -3.57,4.44 -3.17,4.44C-2.77,4.44 -2.39,4.4 -2.01,4.33C-1.49,4.23 -0.99,4.06 -0.52,3.82C0.29,3.429 1.01,2.86 1.56,2.15C1.77,2.71 1.89,3.31 1.89,3.94L2.89,3.94C2.89,2.929 2.65,1.99 2.21,1.16C2.65,0.33 2.89,-0.62 2.89,-1.62" style="fill-rule:nonzero;"/>
        </g>
        <g transform="matrix(-68.248,0,0,68.248,1240.13,2020.7)">
            <path d="M0,-1.149C0.31,-0.95 0.65,-0.78 1,-0.649C0.69,-0.399 0.36,-0.179 0,0C-0.36,-0.179 -0.69,-0.399 -1,-0.649C-0.65,-0.78 -0.31,-0.95 0,-1.149" style="fill-rule:nonzero;"/>
        </g>
        <g transform="matrix(-68.248,0,0,68.248,1240.13,1364.88)">
            <path d="M0,-1.15C0.36,-0.97 0.69,-0.75 1,-0.5C0.65,-0.37 0.31,-0.2 0,0C-0.31,-0.2 -0.65,-0.37 -1,-0.5C-0.69,-0.75 -0.36,-0.97 0,-1.15" style="fill-rule:nonzero;"/>
        </g>
        <g transform="matrix(-20.369,65.1375,65.1375,20.369,1281.09,1726.71)">
            <path d="M-1.948,-0.353L0.88,-0.353L-1.432,-1.961L-2.568,-1.432L-1.948,-0.353Z" style="fill-rule:nonzero;"/>
        </g>
        <g transform="matrix(68.248,0,0,68.248,1103.67,1546.02)">
            <path d="M0,3.152C-0.171,2.652 -0.28,2.128 -0.28,1.576C-0.28,1.024 -0.171,0.5 0,0C-0.364,0.162 -0.71,0.36 -1.015,0.606C-1.089,0.668 -1.154,0.737 -1.225,0.801C-1.257,1.055 -1.28,1.31 -1.28,1.576C-1.28,1.841 -1.257,2.096 -1.225,2.35C-1.154,2.415 -1.089,2.484 -1.015,2.546C-0.71,2.792 -0.364,2.99 0,3.152" style="fill-rule:nonzero;"/>
        </g>
        <g transform="matrix(68.248,0,0,68.248,1376.63,1761.18)">
            <path d="M0,-3.154C0.171,-2.653 0.28,-2.13 0.28,-1.577C0.28,-1.024 0.171,-0.501 0,0C0.364,-0.162 0.711,-0.361 1.016,-0.607C1.09,-0.669 1.154,-0.737 1.225,-0.801C1.257,-1.055 1.28,-1.311 1.28,-1.577C1.28,-1.842 1.257,-2.098 1.225,-2.352C1.154,-2.417 1.09,-2.485 1.016,-2.547C0.711,-2.793 0.364,-2.992 0,-3.154" style="fill-rule:nonzero;"/>
        </g>
    </g>
</svg>
